<svg width="800" height="800" viewBox="0 0 64 64" id="svg5" xmlns="http://www.w3.org/2000/svg"><g id="layer1" transform="translate(-192,-576)"><path d="m202 585h49v6h-49z" id="path61114" style="fill:#3e4f59;fill-opacity:1;fill-rule:evenodd;stroke-width:2;stroke-linecap:round;stroke-linejoin:round;stroke-miterlimit:4.1"/><path d="m202 591h49v40h-49z" id="path61116" style="fill:#acbec2;fill-opacity:1;fill-rule:evenodd;stroke-width:2.00001;stroke-linecap:round;stroke-linejoin:round;stroke-miterlimit:4.1"/><path d="m202 591v40h29.76953a28.484051 41.392605 35.599482 0018.625-40z" id="path61118" style="fill:#e8edee;fill-opacity:1;fill-rule:evenodd;stroke:none;stroke-width:2.00002;stroke-linecap:round;stroke-linejoin:round;stroke-miterlimit:4.1"/><path d="m204 584c-1.64501.0-3 1.355-3 3v40c0 .55229.44772 1 1 1 .55229.0 1-.44771 1-1v-40c0-.56413.43587-1 1-1h45c.56413.0 1 .43587 1 1v3h-42c-.55228.0-1 .44772-1 1 0 .55229.44772 1 1 1h42v37c0 .56413-.43587 1-1 1h-49c-.55228.0-1 .44772-1 1 0 .55229.44772 1 1 1h49c1.64501.0 3-1.35499 3-3 0-14 0-28 0-42 0-1.645-1.35499-3-3-3z" id="path61120" style="color:#000000;fill:#000000;fill-rule:evenodd;stroke-linecap:round;stroke-linejoin:round;stroke-miterlimit:4.1"/><path d="m247 587c-.55228.0-1 .44772-1 1 0 .55229.44772 1 1 1 .55229.0 1-.44771 1-1 0-.55228-.44771-1-1-1z" id="path61122" style="color:#000000;fill:#ed7161;fill-opacity:1;fill-rule:evenodd;stroke-linecap:round;stroke-linejoin:round;stroke-miterlimit:4.1;-inkscape-stroke:none"/><path d="m243 587c-.55228.0-1 .44772-1 1 0 .55229.44772 1 1 1 .55229.0 1-.44771 1-1 0-.55228-.44771-1-1-1z" id="path61124" style="color:#000000;fill:#ecba16;fill-opacity:1;fill-rule:evenodd;stroke-linecap:round;stroke-linejoin:round;stroke-miterlimit:4.1;-inkscape-stroke:none"/><path d="m239 587c-.55228.0-1 .44772-1 1 0 .55229.44772 1 1 1 .55229.0 1-.44771 1-1 0-.55228-.44771-1-1-1z" id="path61126" style="color:#000000;fill:#42b05c;fill-opacity:1;fill-rule:evenodd;stroke-linecap:round;stroke-linejoin:round;stroke-miterlimit:4.1;-inkscape-stroke:none"/><path d="m197 630a1 1 0 00-1 1 1 1 0 001 1 1 1 0 001-1 1 1 0 00-1-1z" id="path61128" style="color:#000000;fill:#000000;fill-rule:evenodd;stroke-linecap:round;stroke-linejoin:round;stroke-miterlimit:4.1;-inkscape-stroke:none"/><path d="m205 590c-.55228.0-1 .44772-1 1 0 .55229.44772 1 1 1 .55229.0 1-.44771 1-1 0-.55228-.44771-1-1-1z" id="path61130" style="color:#000000;fill:#000000;fill-rule:evenodd;stroke-linecap:round;stroke-linejoin:round;stroke-miterlimit:4.1;-inkscape-stroke:none"/><path d="m218.99992 597h19.0001A1.99998 1.99998.0 01240 598.99998V616a1.99998 1.99998.0 01-1.99998 1.99998h-21.00008v-19A1.99998 1.99998.0 01218.99992 597z" id="rect11224" style="fill:#ffa221;fill-opacity:1;fill-rule:evenodd;stroke:none;stroke-width:1.99999;stroke-linecap:round;stroke-linejoin:round;stroke-miterlimit:4.1"/><path d="m219 597a1.99998 1.99998.0 00-2 2v19h16.7168a18.904984 16.634985.0 003.1875-9.21484A18.904984 16.634985.0 00231.33594 597z" id="path48728" style="fill:#ffc343;fill-opacity:1;fill-rule:evenodd;stroke:none;stroke-width:2.00001;stroke-linecap:round;stroke-linejoin:round;stroke-miterlimit:4.1"/><path d="m219 596c-1.64499.0-3 1.35501-3 3v19a1.000095 1.000095.0 001 1h21c1.64499.0 3-1.35501 3-3v-17c0-1.64499-1.35501-3-3-3h-2.02344a.99999499.99999499.0 00-1 1 .99999499.99999499.0 001 1H238c.56412.0 1 .43588 1 1v17c0 .56412-.43588 1-1 1h-20v-18c0-.56412.43588-1 1-1h13.02539a.99999499.99999499.0 001-1 .99999499.99999499.0 00-1-1z" id="path14220" style="color:#000000;fill:#000000;fill-rule:evenodd;stroke-linecap:round;stroke-linejoin:round;stroke-miterlimit:4.1"/><path d="m213.99998 602h19.00003a1.99998 1.99998.0 011.99998 1.99998V622a1.99998 1.99998.0 01-1.99998 1.99998H213.99998A1.99998 1.99998.0 01212 622V603.99998A1.99998 1.99998.0 01213.99998 602z" id="rect11222" style="fill:#fe73c5;fill-opacity:1;fill-rule:evenodd;stroke:none;stroke-width:1.99999;stroke-linecap:round;stroke-linejoin:round;stroke-miterlimit:4.1"/><path d="m214 602a1.99998 1.99998.0 00-2 2v18a1.99998 1.99998.0 002 2h13.24023a15.794059 14.173609.0 003.55469-8.91602A15.794059 14.173609.0 00221.0625 602z" id="path48645" style="fill:#fe93d3;fill-opacity:1;fill-rule:evenodd;stroke:none;stroke-width:2;stroke-linecap:round;stroke-linejoin:round;stroke-miterlimit:4.1"/><path d="m215 624c1-1 7-12 7-12l7 12z" id="path11243" style="fill:#0075d3;fill-opacity:1;fill-rule:evenodd;stroke:none;stroke-width:2;stroke-linecap:round;stroke-linejoin:round;stroke-miterlimit:4.1;stroke-opacity:1"/><circle cx="228" cy="608" id="path11258" r="2" style="fill:#fe93d3;fill-opacity:1;fill-rule:evenodd;stroke:none;stroke-width:2;stroke-linecap:round;stroke-linejoin:round;stroke-miterlimit:4.1;stroke-opacity:1"/><path d="m228 605c-1.64501.0-3 1.35499-3 3s1.35499 3 3 3 3-1.35499 3-3-1.35499-3-3-3zm0 2c.56413.0 1 .43587 1 1s-.43587 1-1 1-1-.43587-1-1 .43587-1 1-1z" id="circle14224" style="color:#000000;fill:#000000;fill-rule:evenodd;stroke-linecap:round;stroke-linejoin:round;stroke-miterlimit:4.1;-inkscape-stroke:none"/><path d="M220.29883 615.08398C218.44479 618.41842 215.65624 623.34376 215 624h10.5z" id="path48522" style="fill:#0588e2;fill-opacity:1;fill-rule:evenodd;stroke:none;stroke-width:2;stroke-linecap:round;stroke-linejoin:round;stroke-miterlimit:4.1;stroke-opacity:1"/><path d="m222 624c2.09659-3.46851 5.5-10 5.5-10l5.83348 10.00024z" id="path14164" style="fill:#0075d3;fill-opacity:1;fill-rule:evenodd;stroke:none;stroke-width:2;stroke-linecap:round;stroke-linejoin:round;stroke-miterlimit:4.1;stroke-opacity:1"/><path d="m221.98633 611a1.0001 1.0001.0 00-.86328.52148s-.9656 1.76844-2.18555 3.95118a1 1 0 00.38477 1.36132 1 1 0 001.36132-.38476c.74858-1.33936.9449-1.70671 1.33985-2.42578L227.25977 623h-10.37305c.0395-.0646.0594-.0779.10156-.14648.53243-.86676 1.17202-1.95962 1.83399-3.11329a1 1 0 00-.36915-1.36523 1 1 0 00-1.36523.36914c-.65638 1.14394-1.29082 2.22597-1.80469 3.0625-.51386.83653-1.02647 1.52257-.99023 1.48633A1.0001 1.0001.0 00215 625h14a1.0001 1.0001.0 00.86328-1.50391l-7-12A1.0001 1.0001.0 00221.98633 611z" id="path14228" style="color:#000000;fill:#000000;fill-rule:evenodd;stroke-linecap:round;stroke-linejoin:round;stroke-miterlimit:4.1;-inkscape-stroke:none"/><path d="M226.15039 616.54883C224.96808 618.76622 223.27803 621.88568 222 624h8.49805z" id="path48569" style="fill:#0588e2;fill-opacity:1;fill-rule:evenodd;stroke:none;stroke-width:2;stroke-linecap:round;stroke-linejoin:round;stroke-miterlimit:4.1;stroke-opacity:1"/><path d="m214 601c-1.64499.0-3 1.35501-3 3v11.95898a.99999499.99999499.0 001 1 .99999499.99999499.0 001-1V604c0-.56412.43588-1 1-1h14.97266a.99999499.99999499.0 001-1 .99999499.99999499.0 00-1-1zm19 0a.99999499.99999499.0 00-1 1 .99999499.99999499.0 001 1c.56412.0 1 .43588 1 1v18c0 .27278-.10438.51338-.27344.69141l-5.36328-9.19532A1.0001 1.0001.0 00227.47656 613a1.0001 1.0001.0 00-.86328.53711s-3.11004 5.96222-5.18164 9.46289H214c-.56412.0-1-.43588-1-1v-2.05273a.99999499.99999499.0 00-1-1 .99999499.99999499.0 00-1 1V622c0 1.64499 1.35501 3 3 3h8 11 .33398a1.0001 1.0001.0 00.4375-.10547C235.04787 624.55008 236 623.37853 236 622v-18c0-1.64499-1.35501-3-3-3zM227.52539 616.02734 231.5918 623h-7.90235c1.67136-2.92584 3.18135-5.72481 3.83594-6.97266z" id="path14222" style="color:#000000;fill:#000000;fill-rule:evenodd;stroke-linecap:round;stroke-linejoin:round;stroke-miterlimit:4.1;-inkscape-stroke:none"/></g></svg>