<svg fill="#000" width="800" height="800" viewBox="144 144 512 512" xmlns="http://www.w3.org/2000/svg"><g><path d="m349.02 487.04h22.73v20.98h-22.73z"/><path d="m394.48 487.04h22.727v20.98H394.48z"/><path d="m258.09 394.36h20.98v22.727h-20.98z"/><path d="m258.09 348.89h20.98v22.73h-20.98z"/><path d="m394.48 257.97h22.73v20.98h-22.73z"/><path d="m349.02 257.97h22.727v20.98H349.02z"/><path d="m487.16 348.9h20.98v22.727h-20.98z"/><path d="m487.16 394.36h20.98v22.73h-20.98z"/><path d="m307.04 240.5c0-5.793-4.6953-10.488-10.488-10.488l-55.938-.003907c-5.793.0-10.488 4.6953-10.488 10.488v55.934c0 5.793 4.6953 10.488 10.488 10.488h17.477v19.242h20.98v-19.242h17.477c5.793.0 10.488-4.6953 10.488-10.488v-17.477h19.246v-20.98h-19.246zm-20.98 45.441h-34.953v-34.953h34.953z"/><path d="m459.19 296.43c0 5.793 4.6953 10.488 10.488 10.488h17.477v19.246h20.98v-19.246h17.477c5.793.0 10.488-4.6953 10.488-10.488l.003906-55.93c0-5.793-4.6953-10.488-10.488-10.488l-55.934-.003907c-5.793.0-10.488 4.6953-10.488 10.488v17.477h-19.246v20.98h19.246zm20.98-45.441h34.953v34.953H480.17z"/><path d="m307.04 469.56c0-5.793-4.6953-10.488-10.488-10.488h-17.477v-19.246h-20.98v19.246h-17.477c-5.793.0-10.488 4.6953-10.488 10.488v55.934c0 5.793 4.6953 10.488 10.488 10.488h55.934c5.793.0 10.488-4.6953 10.488-10.488v-17.477h19.242v-20.98H307.04zm-20.98 45.441h-34.953v-34.953h34.953z"/><path d="m564.52 471.62-138.3-77.855c-3.5156-1.9766-7.8516-1.7656-11.16.55078-3.3047 2.3164-4.9922 6.3203-4.332 10.301l25.859 156.59c.6875 4.1836 3.832 7.5391 7.9531 8.5078.79688.1875 1.5977.27734 2.3945.27734 3.3242.0 6.5156-1.5859 8.5156-4.3594l39.762-55.242 67.105-19.555c4.0508-1.1836 7.0039-4.6758 7.4883-8.8711.47266-4.1953-1.6094-8.2695-5.2852-10.344zm-78.656 19.637c-2.25.65234-4.2148 2.043-5.582 3.9414l-27.125 37.68-18.18-110.1 97.512 54.891z"/></g></svg>