<svg width="800" height="800" viewBox="144 144 512 512" xmlns="http://www.w3.org/2000/svg"><g fill="none" stroke="#000" stroke-linecap="round" stroke-linejoin="round" stroke-width="3"><path transform="matrix(5.0381 0 0 5.0381 148.09 148.09)" d="m13.5 13.5h14v14h-14z"/><path transform="matrix(5.0381 0 0 5.0381 148.09 148.09)" d="m73.5 13.5h14v14h-14z"/><path transform="matrix(5.0381 0 0 5.0381 148.09 148.09)" d="m13.5 73.5h14v14h-14z"/><path transform="matrix(5.0381 0 0 5.0381 148.09 148.09)" d="m73.5 73.5h14v14h-14z"/><path transform="matrix(5.0381 0 0 5.0381 148.09 148.09)" d="m46.5 20.5h8.0008"/><path transform="matrix(5.0381 0 0 5.0381 148.09 148.09)" d="m27.5 20.5h8"/><path transform="matrix(5.0381 0 0 5.0381 148.09 148.09)" d="m65.5 20.5h8"/><path transform="matrix(5.0381 0 0 5.0381 148.09 148.09)" d="m46.5 80.5h8.0008"/><path transform="matrix(5.0381 0 0 5.0381 148.09 148.09)" d="m27.5 80.5h8"/><path transform="matrix(5.0381 0 0 5.0381 148.09 148.09)" d="m65.5 80.5h8"/><path transform="matrix(5.0381 0 0 5.0381 148.09 148.09)" d="m20.5 54.5v-8.0008"/><path transform="matrix(5.0381 0 0 5.0381 148.09 148.09)" d="m20.5 73.5v-8"/><path transform="matrix(5.0381 0 0 5.0381 148.09 148.09)" d="m20.5 35.5v-8"/><path transform="matrix(5.0381 0 0 5.0381 148.09 148.09)" d="m80.5 54.5v-8.0008"/><path transform="matrix(5.0381 0 0 5.0381 148.09 148.09)" d="m80.5 73.5v-8"/><path transform="matrix(5.0381 0 0 5.0381 148.09 148.09)" d="m80.5 35.5v-8"/></g></svg>