<svg fill="#000" width="800" height="800" viewBox="144 144 512 512" xmlns="http://www.w3.org/2000/svg"><g><path d="m310.97 491.41h28.73v10.488h-28.73z"/><path d="m368.42 491.41h28.73v10.488h-28.73z"/><path d="m263.01 367.75h10.488v28.73H263.01z"/><path d="m263.01 425.21h10.488v28.73H263.01z"/><path d="m263.01 310.3h10.488v28.73H263.01z"/><path d="m425.88 262.35h28.73v10.488h-28.73z"/><path d="m310.97 262.35h28.73v10.488h-28.73z"/><path d="m368.43 262.35h28.73v10.488h-28.73z"/><path d="m492.07 310.31h10.488v28.73H492.07z"/><path d="m492.07 367.76h10.488v28.73H492.07z"/><path d="m296.22 234.38h-55.934c-2.8945.0-5.2461 2.3516-5.2461 5.2461v55.934c0 2.8945 2.3516 5.2461 5.2461 5.2461h55.934c2.8945.0 5.2461-2.3516 5.2461-5.2461v-55.934c0-2.8984-2.3516-5.2461-5.2461-5.2461zm-5.2461 55.934h-45.441v-45.445h45.441z"/><path d="m469.35 300.8h55.934c2.8945.0 5.2461-2.3516 5.2461-5.2461v-55.93c0-2.8945-2.3516-5.2461-5.2461-5.2461H469.35c-2.8945.0-5.2461 2.3516-5.2461 5.2461v55.934c.003907 2.8945 2.3516 5.2422 5.2461 5.2422zm5.2461-55.934h45.441v45.441l-45.441.003906z"/><path d="m296.22 463.44h-55.934c-2.8945.0-5.2461 2.3516-5.2461 5.2461v55.934c0 2.8945 2.3516 5.2461 5.2461 5.2461h55.934c2.8945.0 5.2461-2.3516 5.2461-5.2461v-55.934c0-2.8984-2.3516-5.2461-5.2461-5.2461zm-5.2461 55.934h-45.441v-45.441h45.441z"/><path d="m561.62 475.32-59.055-33.246v-16.863h-10.488v10.961l-68.762-38.707c-1.75-.99609-3.9258-.88672-5.582.27344-1.6523 1.1562-2.4922 3.1562-2.1641 5.1523l14.621 88.516h-4.3164v10.488h6.0469l9.5156 57.586c.34375 2.0938 1.9141 3.7695 3.9766 4.2539.39453.089844.80078.13672 1.1953.13672 1.668.0 3.2578-.79297 4.2617-2.1836l40.812-56.707 68.844-20.059c2.0195-.58984 3.4961-2.3398 3.7422-4.4375.23047-2.0938-.80469-4.1289-2.6484-5.1641zm-74.613 20.094c-1.125.32812-2.1055 1.0195-2.793 1.9727l-34.488 47.926-22.027-133.34 117.91 66.371z"/></g></svg>