<svg width="800" height="800" viewBox="0 0 60 60" xmlns="http://www.w3.org/2000/svg"><defs><style>.cls-1 {
fill: #65727f;
fill-rule: evenodd;
}</style></defs><path class="cls-1" d="M1110 506a4 4 0 01-4 4h-52a4 4 0 01-4-4V460h14l-6 6h8l6-6h8l-6 6h8l6-6h8l-6 6h8l6-6h6v46zm-12-56h8a4 4 0 014 4v2h-6zm-10 6-6-6h8l6 6h-8zm-16 0-6-6h8l6 6h-8zm-22 0v-2a4 4 0 014-4h4l6 6h-14zm24.01 40.692a1.214 1.214.0 00.77 1.094 1.466 1.466.0 001.47-.081l13.15-8.666a1.38 1.38.0 00.63-1.154 1.357 1.357.0 00-.64-1.151l-13.18-8.533a1.459 1.459.0 00-1.47-.068 1.3 1.3.0 00-.76 1.163z" id="video" transform="translate(-1050 -450)"/></svg>