<svg width="800" height="800" viewBox="-.02 0 60.031 60.031" id="pencil" xmlns="http://www.w3.org/2000/svg"><defs><style>.cls-1 {
fill: #9f4c4c;
}
.cls-1, .cls-2 {
fill-rule: evenodd;
}
.cls-2 {
fill: #65727f;
}</style></defs><path class="cls-1" d="M400.018 116l-27.932 28.06a4.029 4.029.0 01-1.793 1.04l-7.235 1.974-10.13-10.132 1.974-7.235a4.088 4.088.0 01.4-.965 4 4 0 01.638-.828L384.01 99.988z" data-name="pencil" id="pencil-2" transform="translate(-350 -90)"/><path class="cls-2" d="M408.819 107.324 404.02 112 388.012 95.986l4.663-4.807a4.036 4.036.0 015.708.0l10.436 10.437a4.029 4.029.0 010 5.708zm-56.282 42.62a2.016 2.016.0 01-2.477-2.479l1.582-5.806 6.7 6.7z" data-name="pencil" id="pencil-3" transform="translate(-350 -90)"/></svg>