<svg width="800" height="800" viewBox="0 -.06 60.093 60.093" xmlns="http://www.w3.org/2000/svg"><defs><style>.cls-1 {
fill: #9f4c4c;
fill-rule: evenodd;
}</style></defs><path class="cls-1" d="M829.449 601.585 819.7 611.7a1 1 0 01-1.7-.713V604H804v13.962h6.933a1.071 1.071.0 01.989.619.954.954.0 01-.239 1.09l-10.439 9.737a2 2 0 01-2.828-.021L788.3 619.66a1 1 0 01.713-1.7H796V604H782v6.986a1 1 0 01-1.7.713l-9.748-10.115a2 2 0 01-.022-2.828l9.758-10.439a.957.957.0 011.092-.239 1.073 1.073.0 01.621.989V596h14V582.037h-6.986a1 1 0 01-.713-1.7l10.115-9.728a2 2 0 012.828-.022l10.439 9.738a.954.954.0 01.239 1.09 1.073 1.073.0 01-.989.619H804V596h14v-6.933a1.071 1.071.0 01.621-.989.957.957.0 011.092.239l9.758 10.439A2 2 0 01829.449 601.585z" id="move" transform="translate(-769.938 -570)"/></svg>