<svg width="800" height="800" viewBox="0 0 60 60" xmlns="http://www.w3.org/2000/svg"><defs><style>.cls-1 {
fill: #b5997a;
fill-rule: evenodd;
}</style></defs><path class="cls-1" d="M240 930a30 30 0 11-30 30 30 30 0 0130-30zm-6.5 20h3a1.59 1.59.0 011.5 1.667v16.666A1.59 1.59.0 01236.5 970h-3a1.59 1.59.0 01-1.5-1.667V951.667A1.59 1.59.0 01233.5 950zm10 0h3a1.59 1.59.0 011.5 1.667v16.666A1.59 1.59.0 01246.5 970h-3a1.59 1.59.0 01-1.5-1.667V951.667A1.59 1.59.0 01243.5 950z" id="pause" transform="translate(-210 -930)"/></svg>