<svg width="800" height="800" viewBox="0 0 60 60" id="settings" xmlns="http://www.w3.org/2000/svg"><defs><style>.cls-1 {
fill: #8b695c;
}
.cls-1, .cls-2 {
fill-rule: evenodd;
}
.cls-2 {
fill: #65727f;
}</style></defs><path class="cls-1" d="M1e2 729.988A9.989 9.989.0 11109.989 720 9.989 9.989.0 011e2 729.988zM1e2 716a4 4 0 104 4 4 4 0 00-4-4z" data-name="settings" id="settings-2" transform="translate(-70 -690)"/><path class="cls-2" d="M1e2 710.01m30 5.7v8.571l-9.563 1.913a21.514 21.514.0 01-1.618 3.848l5.424 8.136-6.061 6.061-8.063-5.375a21.006 21.006.0 01-3.945 1.688L104.285 750H95.714l-1.889-9.443a20.991 20.991.0 01-3.945-1.688l-8.063 5.375-6.061-6.061 5.424-8.136a21.447 21.447.0 01-1.618-3.848L70 724.284v-8.571l9.586-1.918a21.437 21.437.0 011.618-3.808l-5.447-8.171 6.061-6.061 8.136 5.424a20.928 20.928.0 013.854-1.644L95.714 690h8.571l1.908 9.536a20.911 20.911.0 013.853 1.644l8.136-5.424 6.061 6.061-5.447 8.171a21.526 21.526.0 011.618 3.808zm-30-11.725A16.01 16.01.0 10116.01 720 16.01 16.01.0 001e2 703.988z" data-name="settings copy" id="settings_copy" transform="translate(-70 -690)"/></svg>