<svg width="800" height="800" viewBox="144 144 512 512" xmlns="http://www.w3.org/2000/svg"><defs><clipPath id="a"><path d="m148.09 169H651.9v462H148.09z"/></clipPath></defs><g clip-path="url(#a)"><path d="m599.42 169.09H200.57c-28.926.0-52.48 23.555-52.48 52.48v356.86c0 28.93 23.555 52.48 52.48 52.48h398.85c28.926.0 52.48-23.555 52.48-52.48V221.57c0-28.926-23.551-52.48-52.48-52.48zm-398.85 20.992h398.85c17.363.0 31.488 14.129 31.488 31.488v31.488h-461.82V221.57c0-17.359 14.129-31.488 31.488-31.488zm398.85 419.84H200.57c-17.359.0-31.488-14.125-31.488-31.488v-304.38h461.82v304.39c0 17.359-14.125 31.484-31.488 31.484z"/></g><path d="m211.07 221.57c0 5.7969-4.6992 10.496-10.496 10.496s-10.496-4.6992-10.496-10.496 4.6992-10.496 10.496-10.496 10.496 4.6992 10.496 10.496"/><path d="m253.05 221.57c0 5.7969-4.6992 10.496-10.496 10.496s-10.496-4.6992-10.496-10.496 4.6992-10.496 10.496-10.496 10.496 4.6992 10.496 10.496"/><path d="m295.04 221.57c0 5.7969-4.6992 10.496-10.496 10.496s-10.496-4.6992-10.496-10.496 4.6992-10.496 10.496-10.496 10.496 4.6992 10.496 10.496"/><path d="m368.51 358.02H200.57c-5.793.0-10.496 4.6992-10.496 10.496v146.95c0 5.793 4.7031 10.492 10.496 10.492h167.94c5.793.0 10.496-4.7031 10.496-10.496v-146.95c0-5.793-4.7031-10.492-10.496-10.492zm-10.496 20.992v98.453l-26.785-13.395c-2.9375-1.4688-6.4219-1.4688-9.3828.0l-33.691 16.855-36.84-55.273c-1.7422-2.6016-4.5781-4.3047-7.7031-4.6172-3.2109-.29297-6.2344.82031-8.4609 3.0234l-24.082 24.078v-69.125zm-146.95 125.95v-27.145l29.871-29.871 34.891 52.332c2.9375 4.4102 8.7109 5.9414 13.434 3.5703l37.281-18.641 31.469 15.746v4.0078z"/><path d="m599.42 358.02H431.48c-5.793.0-10.496 4.7031-10.496 10.496v146.95c0 5.793 4.7031 10.496 10.496 10.496h167.94c5.793.0 10.496-4.7031 10.496-10.496v-146.95c0-5.7969-4.6992-10.496-10.496-10.496zm-10.496 20.992v98.453l-26.785-13.395c-2.9375-1.4688-6.4219-1.4688-9.3828.0l-33.691 16.855-36.84-55.273c-1.7422-2.6016-4.5781-4.3047-7.7031-4.6172-3.168-.29297-6.2344.82031-8.4609 3.0234l-24.078 24.078v-69.125zm-146.94 125.95v-27.145l29.871-29.871 34.891 52.332c2.9375 4.4102 8.7109 5.9414 13.434 3.5703l37.281-18.641 31.465 15.746v4.0078z"/><path d="m337.02 420.99c0 11.594-9.3984 20.992-20.992 20.992s-20.992-9.3984-20.992-20.992 9.3984-20.992 20.992-20.992 20.992 9.3984 20.992 20.992"/><path d="m567.93 420.99c0 11.594-9.3984 20.992-20.992 20.992s-20.992-9.3984-20.992-20.992 9.3984-20.992 20.992-20.992 20.992 9.3984 20.992 20.992"/></svg>